<svg xmlns="http://www.w3.org/2000/svg" width="48" height="48" viewBox="0 0 48 48" shape-rendering="crispEdges"><defs><filter id="g0tl" filterUnits="userSpaceOnUse" x="0" y="0" width="48" height="48" color-interpolation-filters="sRGB"><feTurbulence type="fractalNoise" baseFrequency="0.9" numOctaves="2" seed="3" stitchTiles="stitch" result="noise"></feTurbulence><feColorMatrix in="noise" type="matrix" values="0.667 0 0 0 0.463  0.667 0 0 0 0.416  0.667 0 0 0 0.267  0 0 0 0 1" result="tint"></feColorMatrix><feComposite in="tint" in2="SourceAlpha" operator="in"></feComposite></filter><filter id="g0br" filterUnits="userSpaceOnUse" x="0" y="0" width="48" height="48" color-interpolation-filters="sRGB"><feTurbulence type="fractalNoise" baseFrequency="0.9" numOctaves="2" seed="6" stitchTiles="stitch" result="noise"></feTurbulence><feColorMatrix in="noise" type="matrix" values="0.133 0 0 0 0.004  0.133 0 0 0 -0.004  0.133 0 0 0 -0.031  0 0 0 0 1" result="tint"></feColorMatrix><feComposite in="tint" in2="SourceAlpha" operator="in"></feComposite></filter><filter id="g1tl" filterUnits="userSpaceOnUse" x="0" y="0" width="48" height="48" color-interpolation-filters="sRGB"><feTurbulence type="fractalNoise" baseFrequency="0.9" numOctaves="2" seed="10" stitchTiles="stitch" result="noise"></feTurbulence><feColorMatrix in="noise" type="matrix" values="0.533 0 0 0 0.255  0.533 0 0 0 0.180  0.533 0 0 0 0.024  0 0 0 0 1" result="tint"></feColorMatrix><feComposite in="tint" in2="SourceAlpha" operator="in"></feComposite></filter><filter id="g1br" filterUnits="userSpaceOnUse" x="0" y="0" width="48" height="48" color-interpolation-filters="sRGB"><feTurbulence type="fractalNoise" baseFrequency="0.9" numOctaves="2" seed="13" stitchTiles="stitch" result="noise"></feTurbulence><feColorMatrix in="noise" type="matrix" values="0.200 0 0 0 0.057  0.200 0 0 0 0.025  0.200 0 0 0 -0.041  0 0 0 0 1" result="tint"></feColorMatrix><feComposite in="tint" in2="SourceAlpha" operator="in"></feComposite></filter><filter id="g2tl" filterUnits="userSpaceOnUse" x="0" y="0" width="48" height="48" color-interpolation-filters="sRGB"><feTurbulence type="fractalNoise" baseFrequency="0.9" numOctaves="2" seed="17" stitchTiles="stitch" result="noise"></feTurbulence><feColorMatrix in="noise" type="matrix" values="0.467 0 0 0 0.194  0.467 0 0 0 0.151  0.467 0 0 0 0.041  0 0 0 0 1" result="tint"></feColorMatrix><feComposite in="tint" in2="SourceAlpha" operator="in"></feComposite></filter><filter id="g2br" filterUnits="userSpaceOnUse" x="0" y="0" width="48" height="48" color-interpolation-filters="sRGB"><feTurbulence type="fractalNoise" baseFrequency="0.9" numOctaves="2" seed="20" stitchTiles="stitch" result="noise"></feTurbulence><feColorMatrix in="noise" type="matrix" values="0.200 0 0 0 0.100  0.200 0 0 0 0.033  0.200 0 0 0 -0.041  0 0 0 0 1" result="tint"></feColorMatrix><feComposite in="tint" in2="SourceAlpha" operator="in"></feComposite></filter><filter id="g3tl" filterUnits="userSpaceOnUse" x="0" y="0" width="48" height="48" color-interpolation-filters="sRGB"><feTurbulence type="fractalNoise" baseFrequency="0.9" numOctaves="2" seed="24" stitchTiles="stitch" result="noise"></feTurbulence><feColorMatrix in="noise" type="matrix" values="0.200 0 0 0 0.018  0.200 0 0 0 -0.010  0.200 0 0 0 -0.037  0 0 0 0 1" result="tint"></feColorMatrix><feComposite in="tint" in2="SourceAlpha" operator="in"></feComposite></filter><filter id="g3br" filterUnits="userSpaceOnUse" x="0" y="0" width="48" height="48" color-interpolation-filters="sRGB"><feTurbulence type="fractalNoise" baseFrequency="0.9" numOctaves="2" seed="27" stitchTiles="stitch" result="noise"></feTurbulence><feColorMatrix in="noise" type="matrix" values="0.600 0 0 0 0.347  0.600 0 0 0 0.296  0.600 0 0 0 0.155  0 0 0 0 1" result="tint"></feColorMatrix><feComposite in="tint" in2="SourceAlpha" operator="in"></feComposite></filter></defs><polygon points="0,0 48,0 47,1 1,1 1,47 0,48" fill="#000000" filter="url(#g0tl)"></polygon><polygon points="48,0 48,48 0,48 1,47 47,47 47,1" fill="#000000" filter="url(#g0br)"></polygon><polygon points="1,1 47,1 46,2 2,2 2,46 1,47" fill="#000000" filter="url(#g1tl)"></polygon><polygon points="47,1 47,47 1,47 2,46 46,46 46,2" fill="#000000" filter="url(#g1br)"></polygon><polygon points="2,2 46,2 45,3 3,3 3,45 2,46" fill="#000000" filter="url(#g2tl)"></polygon><polygon points="46,2 46,46 2,46 3,45 45,45 45,3" fill="#000000" filter="url(#g2br)"></polygon><polygon points="3,3 45,3 44,4 4,4 4,44 3,45" fill="#000000" filter="url(#g3tl)"></polygon><polygon points="45,3 45,45 3,45 4,44 44,44 44,4" fill="#000000" filter="url(#g3br)"></polygon></svg>
